# xmcd
#
# Track frame offsets:
#	150
#	11394
#	24003
#	36725
#	48697
#	57879
#	70121
#	81617
#	90570
#	108245
#	123784
#	134807
#	146759
#
# Disc length: 2082 seconds
#
# Revision: 1
# Processed by: cddbd v1.5.2PL0 Copyright (c) Steve Scherf et al.
# Submitted via: audiograbber 1.83.01
#
DISCID=b508200d
DTITLE=T.R. and The Boys - Lonesome
DYEAR=2007
DGENRE=Bluegrass
TTITLE0=Big Spike Hammer
TTITLE1=Kentucky Girl
TTITLE2=Two Little Boys
TTITLE3=Lonesome As A Pine
TTITLE4=Workin' Man Blues
TTITLE5=Next To Nothing
TTITLE6=Fire On The Mountain
TTITLE7=Lovers Lane
TTITLE8=Please Search The Book Again
TTITLE9=Amie
TTITLE10=Matterhorn
TTITLE11=Little White Washed Chimney
TTITLE12=Wade In The Water
EXTD=
EXTT0=
EXTT1=
EXTT2=
EXTT3=
EXTT4=
EXTT5=
EXTT6=
EXTT7=
EXTT8=
EXTT9=
EXTT10=
EXTT11=
EXTT12=
PLAYORDER=
